# xmcd
# Track frame offsets:
# 150
# 13114
# 25445
# 37113
# 45083
# 58218
# 69957
# 82345
# 95593
# 107986
# 125064
# 143186
# 155312
# 170383
#
# Disc length: 2413 seconds
# Revision: 0
# Processed by: cddbd v1.5.2PL0 Copyright (c) Steve Scherf et al.
# Submitted via: VisiTrax 2.11.3.279 - For more info visit www.synapsa.com
#
DISCID=c3096b0e
DTITLE=Johnny Cash - The Very Best Of Johnny Cash
DYEAR=2008
DGENRE=Country
TTITLE0=Johnny Cash - Man In Black
TTITLE1=Johnny Cash - I Walk The Line
TTITLE2=Johnny Cash - I Still Miss Someone
TTITLE3=Johnny Cash - You Wild Colorado
TTITLE4=Johnny Cash - 40 Shades Of Green
TTITLE5=Johnny Cash - Ring Of Fire
TTITLE6=Johnny Cash With June Carter Cash - Jackson
TTITLE7=Johnny Cash - Bad News
TTITLE8=Johnny Cash - Folsom Prison Blues [Live]
TTITLE9=Johnny Cash - A Boy Named Sue [Live]
TTITLE10=Johnny Cash - One Piece At A Time
TTITLE11=Johnny Cash - Hit The Road And Go
TTITLE12=Johnny Cash - Rockabilly Blues (Texas 1955)
TTITLE13=Johnny Cash - Daddy Sang Bass
EXTD=Columbia - Legacy
EXTT0=
EXTT1=
EXTT2=
EXTT3=
EXTT4=
EXTT5=
EXTT6=
EXTT7=
EXTT8=
EXTT9=
EXTT10=
EXTT11=
EXTT12=
EXTT13=
PLAYORDER=
